<?xml version="1.0" encoding="utf-8"?>
<!-- Svg Vector Icons : http://www.onlinewebfonts.com/icon -->
<!DOCTYPE svg PUBLIC "-//W3C//DTD SVG 1.1//EN" "http://www.w3.org/Graphics/SVG/1.1/DTD/svg11.dtd">
<svg version="1.1" xmlns="http://www.w3.org/2000/svg" xmlns:xlink="http://www.w3.org/1999/xlink" x="0px" y="0px" viewBox="0 0 1000 1000" enable-background="new 0 0 1000 1000" xml:space="preserve">
<metadata> Svg Vector Icons : http://www.onlinewebfonts.com/icon </metadata>
<g><path d="M901.8,381.1C905.2,270.9,793.2,23.2,511.7,9.7C272.6,8,116.5,204.7,106.3,367.6c-72.9,17-128.9,130.6-74.6,201.8c22.1,28.8,40.7,50.9,122.1,81.4l101.8,330.7c0,0,6.8,6.8,20.3,8.5c37.3-3.4,447.7,0,447.7,0s25.4,5.1,35.6-23.7C769.5,937.4,856,627,856,627s122.1-1.7,134-106.9C991.6,442.2,959.4,408.2,901.8,381.1z M323.5,927c-13.4,4.1-27.7-3.9-32-17.9L232.9,717c-4.3-14,3.1-28.6,16.5-32.7c13.4-4.1,27.7,3.9,32,17.9L340,894.3C344.3,908.3,336.9,923,323.5,927z M445.5,931.5c-13.9,1.8-26.7-8.6-28.5-23.1l-25.3-199.2c-1.8-14.5,7.9-27.7,21.8-29.5c13.9-1.8,26.6,8.6,28.5,23.1l25.3,199.2C469.1,916.6,459.4,929.8,445.5,931.5z M611.6,709.2l-25.3,199.2c-1.8,14.5-14.6,24.8-28.5,23.1c-13.9-1.8-23.7-15-21.8-29.5l25.3-199.2c1.9-14.5,14.6-24.8,28.5-23.1C603.6,681.5,613.4,694.7,611.6,709.2z M770.3,717l-58.6,192.1c-4.3,14-18.6,22-32,17.9c-13.4-4.1-20.8-18.7-16.5-32.7l58.6-192.1c4.3-14,18.6-22,32-17.9C767.2,688.4,774.6,703,770.3,717z M930.6,511.7c-10.2,33.9-64.5,89.9-137.4,22.1c-10.2-6.8-18.7-10.2-39,10.2c-20.3,20.4-30.5,85.9-122,82.5c-50.9-3.4-93.3-46.8-113.7-74c-11.9-17-35.6-20.3-50.9,1.7c-15.3,22-71.2,76.3-145.8,8.5c-13.6-18.7-37.3-25.4-61.1,0c-23.7,25.4-103.5,61-179.8-22c-30.5-33.9,1.7-115.3,71.2-130.6c6.8-10.2,6.8-10.2,6.8-10.2S172.9,89.4,500,72.4c235.8,12.9,333.9,178.1,349.2,351.1C910.2,438.8,940.8,477.8,930.6,511.7z M520.2,196.2c0-16.9-13.7-30.5-30.5-30.5c-16.9,0-30.5,13.7-30.5,30.5s13.7,30.5,30.5,30.5C506.5,226.8,520.2,213.1,520.2,196.2z M716.8,247.9c0-16.9-13.7-30.5-30.5-30.5c-16.9,0-30.5,13.7-30.5,30.5s13.7,30.5,30.5,30.5C703.1,278.4,716.8,264.8,716.8,247.9z M704.2,406.1c-16.9,0-30.5,13.7-30.5,30.6c0,16.9,13.7,30.5,30.5,30.5c16.9,0,30.5-13.7,30.5-30.5C734.7,419.8,721,406.1,704.2,406.1z M501,375.6c-16.9,0-30.5,13.7-30.5,30.5s13.7,30.6,30.5,30.6s30.5-13.7,30.5-30.6S517.8,375.6,501,375.6z M317,257.4c-16.9,0-30.5,13.7-30.5,30.5c0,16.9,13.7,30.5,30.5,30.5c16.9,0,30.5-13.7,30.5-30.5C347.5,271.1,333.9,257.4,317,257.4z M262.3,406.1c-16.9,0-30.6,13.7-30.6,30.6c0,16.9,13.7,30.5,30.6,30.5c16.9,0,30.5-13.7,30.5-30.5C292.8,419.8,279.1,406.1,262.3,406.1z"/></g>
</svg>