<svg xmlns="http://www.w3.org/2000/svg" xmlns:xlink="http://www.w3.org/1999/xlink" preserveAspectRatio="xMidYMid" width="43" height="34" viewBox="0 0 43 34">
  <defs>
    <style>

      .cls-3 {
        fill: #000000;
      }
    </style>
  </defs>
  <g id="group-2svg">
    <path d="M41.488,32.953 C41.004,32.953 40.528,32.719 40.239,32.285 C40.239,32.285 21.487,4.157 21.487,4.157 C21.487,4.157 2.735,32.285 2.735,32.285 C2.275,32.976 1.344,33.162 0.655,32.701 C-0.034,32.241 -0.221,31.310 0.239,30.621 C0.239,30.621 20.239,0.621 20.239,0.621 C20.796,-0.213 22.179,-0.213 22.735,0.621 C22.735,0.621 42.735,30.621 42.735,30.621 C43.195,31.310 43.009,32.241 42.319,32.701 C42.063,32.872 41.774,32.953 41.488,32.953 Z" id="path-1" class="cls-3" fill-rule="evenodd"/>
  </g>
</svg>
