<svg xmlns="http://www.w3.org/2000/svg" xmlns:xlink="http://www.w3.org/1999/xlink" preserveAspectRatio="xMidYMid" width="44" height="34" viewBox="0 0 44 34">
  <defs>
    <style>

      .cls-3 {
        fill: #9c9c9c;
      }
    </style>
  </defs>
  <g id="group-3svg">
    <path d="M21.519,33.016 C21.017,33.016 20.549,32.765 20.270,32.348 C20.270,32.348 0.270,2.348 0.270,2.348 C-0.190,1.658 -0.003,0.728 0.686,0.268 C1.374,-0.193 2.307,-0.007 2.767,0.684 C2.767,0.684 21.519,28.812 21.519,28.812 C21.519,28.812 40.270,0.684 40.270,0.684 C40.729,-0.007 41.661,-0.193 42.351,0.268 C43.040,0.728 43.227,1.658 42.767,2.348 C42.767,2.348 22.767,32.348 22.767,32.348 C22.488,32.765 22.020,33.016 21.519,33.016 Z" id="path-1" class="cls-3" fill-rule="evenodd"/>
  </g>
</svg>
