<?xml version="1.0" encoding="iso-8859-1"?>
<!-- Generator: Adobe Illustrator 19.1.0, SVG Export Plug-In . SVG Version: 6.00 Build 0)  -->
<svg version="1.1" id="Capa_1" xmlns="http://www.w3.org/2000/svg" xmlns:xlink="http://www.w3.org/1999/xlink" x="0px" y="0px"
	 viewBox="0 0 63.501 63.501" style="enable-background:new 0 0 63.501 63.501;" xml:space="preserve">
<g>
	<g id="group-14svg">
		<path id="path-1_4_" style="fill:#FF917B;" d="M36.551,15.406l-3.134,2.271v0.037l-1.605-2.158c0,0-11.121-3.799-7.778,11.094
			c3.343,14.892,8.876,36.851,8.876,36.851l0.386-0.292c0,0,6.542-21.57,10.828-36.219S36.551,15.406,36.551,15.406z"/>
		<path id="path-2_4_" style="fill:#81BDA4;" d="M46.091,3.51c-6.676-0.241-10.333,4.379-11.588,6.354
			c-1.254-1.975-4.911-6.595-11.587-6.354c-8.473,0.306,0.711,5.213,2.45,6.451c1.737,1.238,7.613,3.796,8.127,6.041
			c0.273,1.191,0.684-0.359,1.01-2.078c0.327,1.719,0.739,3.269,1.011,2.078c0.515-2.245,6.39-4.803,8.128-6.041
			C45.379,8.723,54.565,3.816,46.091,3.51z"/>
		<path id="path-3_4_" d="M28.972,63.001c-0.158,0-0.317-0.025-0.471-0.076c-0.489-0.162-0.86-0.562-0.984-1.061
			c-0.056-0.221-5.513-22.147-8.822-36.886c-1.129-5.028-0.787-8.721,1.016-10.973c1.247-1.559,3.148-2.383,5.497-2.383
			c1.796,0,3.272,0.492,3.333,0.513c0.255,0.086,0.483,0.239,0.659,0.443l0.899,1.046l1.775-1.397
			c0.162-0.128,0.348-0.221,0.548-0.273c0.124-0.032,1.251-0.315,2.734-0.315c2.677,0,4.781,0.919,6.086,2.66
			c1.771,2.365,1.927,6.104,0.462,11.112c-4.24,14.492-10.876,36.024-10.943,36.24c-0.087,0.282-0.255,0.531-0.482,0.718
			l-0.356,0.291C29.651,62.884,29.314,63.001,28.972,63.001z M25.208,14.622c-1.426,0-2.487,0.423-3.155,1.258
			c-1.188,1.484-1.337,4.403-0.43,8.441c2.363,10.527,5.827,24.735,7.625,32.042c2.172-7.09,6.505-21.295,9.577-31.794
			c1.169-3.996,1.175-6.925,0.015-8.471c-0.724-0.968-1.964-1.459-3.684-1.459c-0.73,0-1.356,0.095-1.698,0.16l-2.481,1.953
			c-0.149,0.152-0.331,0.273-0.538,0.35c-0.59,0.219-1.249,0.065-1.659-0.41l-1.561-1.815
			C26.795,14.772,26.044,14.622,25.208,14.622z"/>
		<path id="path-4_4_" d="M31.291,15.922L31.291,15.922c-0.307,0-0.566-0.068-0.788-0.191c-0.22,0.123-0.48,0.191-0.788,0.191
			c-0.396,0-1.356-0.155-1.684-1.584c-0.227-0.991-3.893-3.038-5.273-3.809c-0.926-0.517-1.727-0.964-2.262-1.346
			c-0.221-0.157-0.571-0.376-0.99-0.641c-3.507-2.214-6.143-4.082-5.55-6.28c0.501-1.856,2.884-2.178,4.906-2.251
			c5.836-0.214,9.626,2.918,11.641,5.324c2.018-2.406,5.787-5.549,11.642-5.324c2.021,0.073,4.405,0.395,4.906,2.251
			c0.593,2.197-2.042,4.066-5.548,6.279c-0.42,0.265-0.77,0.485-0.991,0.642c-0.536,0.382-1.336,0.828-2.262,1.346
			c-1.379,0.771-5.046,2.818-5.274,3.808C32.649,15.767,31.689,15.922,31.291,15.922z M30.503,10.424
			c0.537,0,1.019,0.285,1.284,0.723c1.227-1.082,2.985-2.111,5.001-3.238c0.814-0.454,1.583-0.883,1.984-1.169
			c0.252-0.18,0.65-0.433,1.13-0.736c0.808-0.51,2.994-1.89,3.887-2.812c-0.353-0.076-0.906-0.152-1.751-0.183
			c-5.904-0.201-9.158,3.911-10.269,5.66c-0.274,0.433-0.753,0.695-1.266,0.695l0,0c-0.513,0-0.991-0.263-1.266-0.696
			c-1.111-1.749-4.358-5.871-10.268-5.659c-0.846,0.031-1.398,0.107-1.751,0.183c0.894,0.922,3.08,2.302,3.89,2.813
			c0.477,0.302,0.876,0.555,1.128,0.734c0.402,0.287,1.171,0.716,1.985,1.171c2.019,1.127,3.778,2.158,5.002,3.232
			C29.489,10.706,29.968,10.424,30.503,10.424z"/>
		<path id="path-5_4_" d="M22.589,24.51c-1.604,0-2.602-0.037-2.664-0.04c-0.828-0.032-1.473-0.729-1.441-1.557
			c0.032-0.827,0.75-1.455,1.556-1.441c0.023,0.001,2.238,0.084,5.369,0c0.798-0.03,1.516,0.63,1.539,1.459
			c0.022,0.828-0.631,1.517-1.459,1.539C24.393,24.5,23.412,24.51,22.589,24.51z"/>
		<path id="path-6_4_" d="M27.748,40.843c-1.605,0-2.603-0.037-2.665-0.039c-0.828-0.033-1.472-0.729-1.441-1.557
			c0.032-0.828,0.725-1.466,1.557-1.441c0.022,0.001,2.237,0.083,5.368-0.001c0.814-0.045,1.517,0.631,1.539,1.46
			c0.022,0.828-0.631,1.517-1.459,1.539C29.551,40.833,28.57,40.843,27.748,40.843z"/>
		<path id="path-7_3_" d="M38.417,32.247h-8c-0.828,0-1.5-0.671-1.5-1.5s0.672-1.5,1.5-1.5h8c0.829,0,1.5,0.671,1.5,1.5
			S39.246,32.247,38.417,32.247z"/>
		<path id="path-8_3_" d="M39.417,19.247h-8c-0.828,0-1.5-0.671-1.5-1.5s0.672-1.5,1.5-1.5h8c0.829,0,1.5,0.671,1.5,1.5
			S40.246,19.247,39.417,19.247z"/>
	</g>
</g>
<g>
</g>
<g>
</g>
<g>
</g>
<g>
</g>
<g>
</g>
<g>
</g>
<g>
</g>
<g>
</g>
<g>
</g>
<g>
</g>
<g>
</g>
<g>
</g>
<g>
</g>
<g>
</g>
<g>
</g>
</svg>
