<?xml version="1.0" encoding="iso-8859-1"?>
<!-- Generator: Adobe Illustrator 19.1.0, SVG Export Plug-In . SVG Version: 6.00 Build 0)  -->
<svg version="1.1" id="Capa_1" xmlns="http://www.w3.org/2000/svg" xmlns:xlink="http://www.w3.org/1999/xlink" x="0px" y="0px"
	 viewBox="0 0 65.496 65.496" style="enable-background:new 0 0 65.496 65.496;" xml:space="preserve">
<g>
	<g id="group-19svg">
		<path id="path-1_9_" style="fill:#FF917B;" d="M58.059,32.393C38.504,22.569,35.496,8.726,35.496,8.726
			s-3.009,13.843-22.564,23.667c-19.555,9.825,3.51,26.535,22.564,21.529C54.549,58.928,77.614,42.218,58.059,32.393z"/>
		<path id="path-2_9_" d="M38.779,54.082c-0.001,0-0.002,0-0.003,0c-2.511,0-4.958-0.164-7.28-0.74
			c-2.323,0.576-4.77,0.931-7.281,0.931c-11.314,0-22.3-5.989-23.99-13.116c-0.641-2.703-0.449-7.858,8.034-12.12
			C26.858,19.693,30.002,6.453,30.031,6.321c0.154-0.685,0.763-1.239,1.464-1.239c0.002,0,0.003,0,0.005,0
			c0.704,0,1.312,0.564,1.462,1.252c0.028,0.127,3.172,13.338,21.771,22.682c8.484,4.263,8.675,9.325,8.034,12.028
			C61.077,48.171,50.092,54.082,38.779,54.082z M31.496,50.422c0.128,0,0.256-0.111,0.381-0.078c2.186,0.574,4.507,0.738,6.9,0.738
			h0.002c9.855,0,19.7-4.937,21.069-10.712c0.967-4.075-2.981-6.951-6.462-8.7c-13.701-6.883-19.536-15.634-21.89-20.661
			c-2.355,5.027-8.189,13.825-21.89,20.709c-3.481,1.749-7.428,4.696-6.462,8.771c1.369,5.775,11.216,10.844,21.071,10.844
			c2.391,0,4.712-0.289,6.899-0.864C31.239,50.436,31.368,50.422,31.496,50.422z"/>
		<path id="path-3_9_" d="M34.409,54.018c-0.632,0-1.219-0.403-1.426-1.036c-0.256-0.788,0.174-1.635,0.961-1.891
			c7.712-2.513,11.915-5.847,12.492-9.909c0.969-6.82-8.555-14.937-12.306-17.49c-0.686-0.466-0.863-1.399-0.397-2.084
			c0.465-0.684,1.399-0.862,2.084-0.396c0.614,0.417,15.018,10.343,13.589,20.392c-0.752,5.29-5.641,9.442-14.532,12.339
			C34.72,53.994,34.563,54.018,34.409,54.018z"/>
		<path id="path-4_9_" d="M28.975,54.018c-0.155,0-0.311-0.024-0.466-0.075c-8.89-2.897-13.779-7.049-14.531-12.339
			c-1.429-10.049,12.975-19.975,13.589-20.392c0.685-0.466,1.617-0.289,2.084,0.396c0.465,0.684,0.289,1.617-0.396,2.084
			c-0.135,0.092-13.477,9.289-12.307,17.493c0.579,4.061,4.782,7.394,12.491,9.906c0.788,0.256,1.218,1.103,0.962,1.891
			C30.194,53.615,29.606,54.018,28.975,54.018z"/>
		<path id="path-5_9_" d="M22.943,57.908c-0.7,0-1.326-0.493-1.469-1.206c-0.162-0.812,0.365-1.603,1.177-1.765
			c4.749-0.95,6.36-3.171,6.426-3.265c0.472-0.671,1.402-0.847,2.079-0.384c0.677,0.461,0.864,1.373,0.412,2.057
			c-0.09,0.135-2.258,3.319-8.329,4.533C23.14,57.898,23.041,57.908,22.943,57.908z"/>
		<path id="path-6_8_" d="M31.497,60.414c-0.023,0-0.047-0.001-0.07-0.001c-0.828-0.039-1.468-0.741-1.43-1.568l0.295-6.397
			c0.03-0.649,0.474-1.204,1.1-1.377c0.624-0.174,1.291,0.076,1.65,0.618c0.054,0.077,1.665,2.298,6.414,3.248
			c0.812,0.162,1.339,0.953,1.176,1.765c-0.162,0.813-0.954,1.339-1.764,1.176c-2.552-0.509-4.413-1.368-5.721-2.201l-0.153,3.306
			C32.957,59.787,32.294,60.414,31.497,60.414z"/>
	</g>
</g>
<g>
</g>
<g>
</g>
<g>
</g>
<g>
</g>
<g>
</g>
<g>
</g>
<g>
</g>
<g>
</g>
<g>
</g>
<g>
</g>
<g>
</g>
<g>
</g>
<g>
</g>
<g>
</g>
<g>
</g>
</svg>
