<?xml version="1.0" encoding="iso-8859-1"?>
<!-- Generator: Adobe Illustrator 19.1.0, SVG Export Plug-In . SVG Version: 6.00 Build 0)  -->
<svg version="1.1" id="Capa_1" xmlns="http://www.w3.org/2000/svg" xmlns:xlink="http://www.w3.org/1999/xlink" x="0px" y="0px"
	 viewBox="0 0 64.897 64.897" style="enable-background:new 0 0 64.897 64.897;" xml:space="preserve">
<g>
	<g id="group-23svg">
		<path id="path-1_14_" style="fill:#E56A77;" d="M63.019,37.578c0,15.088-12.232,27.319-27.32,27.319S8.379,52.666,8.379,37.578
			c0-15.089,12.232-27.32,27.32-27.32S63.019,22.489,63.019,37.578z"/>
		<path id="path-2_14_" style="fill:#81BDA4;" d="M55.583,15c-2.421-4-14.784-4.568-14.784-4.568L41.058,5h-5.187h-4.669l0.26,5.432
			c0,0-12.364,0.568-14.784,4.568h10.375l-5.534,9.646l10.116-3.39l4.236,13.866l4.495-13.815l10.375,3.331L45.208,15H55.583z"/>
		<path id="path-3_14_" d="M30.699,63.397c-15.891,0-28.82-12.928-28.82-28.819c0-15.892,12.929-28.82,28.82-28.82
			s28.82,12.928,28.82,28.82C59.519,50.469,46.59,63.397,30.699,63.397z M30.699,8.758c-14.237,0-25.82,11.582-25.82,25.82
			c0,14.237,11.583,25.819,25.82,25.819s25.82-11.582,25.82-25.819C56.519,20.34,44.936,8.758,30.699,8.758z"/>
		<path id="path-4_14_" d="M30.872,34c-0.005,0-0.01,0-0.015,0c-0.655,0-1.23-0.657-1.42-1.283l-3.793-12.58l-8.663,2.741
			c-0.587,0.19-1.23-0.027-1.621-0.504c-0.391-0.477-0.45-1.158-0.149-1.696L19.496,13h-7.817c-0.541,0-1.041-0.292-1.307-0.763
			c-0.266-0.472-0.256-1.051,0.024-1.513c2.3-3.802,10.705-4.893,14.498-5.195l-0.189-3.958c-0.02-0.409,0.13-0.809,0.413-1.106
			C25.401,0.168,25.793,0,26.203,0h9.856c0.411,0,0.803,0.168,1.086,0.465c0.283,0.297,0.432,0.697,0.412,1.107l-0.189,3.957
			c3.793,0.302,12.199,1.393,14.499,5.194c0.28,0.463,0.29,1.042,0.023,1.513C51.625,12.708,51.125,13,50.583,13h-7.815l4.175,7.448
			c0.199,0.255,0.318,0.639,0.318,0.988c0,0.829-0.671,1.564-1.5,1.564c-0.006,0-0.013,0-0.02,0c-0.143,0-0.288-0.085-0.429-0.127
			l-8.973-2.71l-4.042,12.598C32.096,33.379,31.521,34,30.872,34z M26.636,16.631c0.239,0,0.478,0.057,0.694,0.171
			c0.357,0.186,0.623,0.507,0.741,0.892l2.851,9.375l3.019-9.259c0.253-0.772,1.075-1.204,1.856-0.972l6.826,2.038l-3.723-6.643
			c-0.26-0.464-0.255-1.032,0.014-1.491c0.27-0.46,0.762-0.742,1.295-0.742h5.098c-2.886-0.9-6.696-1.436-9.577-1.569
			c-0.397-0.019-0.772-0.195-1.04-0.489c-0.268-0.295-0.407-0.684-0.388-1.082L34.486,3h-6.709l0.184,3.861
			c0.019,0.397-0.121,0.786-0.389,1.081c-0.268,0.294-0.643,0.47-1.04,0.489C23.651,8.564,19.842,9.1,16.955,10h5.099
			c0.532,0,1.024,0.282,1.293,0.741c0.269,0.459,0.275,1.027,0.016,1.491l-3.67,6.564l6.482-2.092
			C26.325,16.655,26.481,16.631,26.636,16.631z"/>
		<path id="path-5_14_" d="M28.331,56.309c-0.098,0-0.197-0.01-0.297-0.03c-13.707-2.753-17.655-19.111-17.816-19.806
			c-0.187-0.807,0.314-1.611,1.121-1.799c0.807-0.189,1.612,0.313,1.801,1.119c0.035,0.151,3.686,15.175,15.485,17.544
			c0.812,0.163,1.338,0.954,1.175,1.766C29.657,55.816,29.031,56.309,28.331,56.309z"/>
	</g>
</g>
<g>
</g>
<g>
</g>
<g>
</g>
<g>
</g>
<g>
</g>
<g>
</g>
<g>
</g>
<g>
</g>
<g>
</g>
<g>
</g>
<g>
</g>
<g>
</g>
<g>
</g>
<g>
</g>
<g>
</g>
</svg>
