<?xml version="1.0" encoding="iso-8859-1"?>
<!-- Generator: Adobe Illustrator 19.1.0, SVG Export Plug-In . SVG Version: 6.00 Build 0)  -->
<svg version="1.1" id="Capa_1" xmlns="http://www.w3.org/2000/svg" xmlns:xlink="http://www.w3.org/1999/xlink" x="0px" y="0px"
	 viewBox="0 0 64 64" style="enable-background:new 0 0 64 64;" xml:space="preserve">
<g>
	<g id="group-78svg">
		<path id="path-1_74_" style="fill:#E56A77;" d="M37.5,14h-6v8.016l-8,6.652V64h11.773H45.5V28.668l-8-6.652V14z"/>
		<path id="path-2_74_" style="fill:#EDC951;" d="M34.731,49H23.5v-7h10.981c1.243,0,1.019,1.105,1.019,2.348v3.386
			C35.5,48.839,35.836,49,34.731,49z"/>
		<path id="path-3_74_" d="M42,63H20c-0.828,0-1.5-0.672-1.5-1.5V26.668c0-0.445,0.198-0.868,0.541-1.153l7.459-6.203V1.5
			C26.5,0.672,27.172,0,28,0h6c0.828,0,1.5,0.672,1.5,1.5v17.812l7.459,6.203c0.343,0.285,0.541,0.708,0.541,1.153V61.5
			C43.5,62.328,42.828,63,42,63z M21.5,60h19V27.371l-7.459-6.202c-0.343-0.285-0.541-0.708-0.541-1.153V3h-3v17.016
			c0,0.445-0.198,0.868-0.541,1.153L21.5,27.371V60z"/>
		<path id="path-4_74_" d="M33.5,15h-5c-0.828,0-1.5-0.672-1.5-1.5s0.672-1.5,1.5-1.5h5c0.828,0,1.5,0.672,1.5,1.5
			S34.328,15,33.5,15z"/>
		<path id="path-5_72_" d="M31.626,48.049c-0.112,0-0.247-0.009-0.407-0.024C31.09,48.015,30.93,48,30.731,48H20
			c-0.828,0-1.5-0.672-1.5-1.5v-7c0-0.828,0.672-1.5,1.5-1.5h10.481c0.708,0,3.019,0.313,3.019,4.348v3.386
			C33.5,47.748,32.326,48.049,31.626,48.049z M21.5,45h9v-2.652c0-0.731-0.112-1.158-0.191-1.348H21.5V45z"/>
	</g>
</g>
<g>
</g>
<g>
</g>
<g>
</g>
<g>
</g>
<g>
</g>
<g>
</g>
<g>
</g>
<g>
</g>
<g>
</g>
<g>
</g>
<g>
</g>
<g>
</g>
<g>
</g>
<g>
</g>
<g>
</g>
</svg>
