<?xml version="1.0" encoding="utf-8"?>
<!-- Generator: Adobe Illustrator 21.0.2, SVG Export Plug-In . SVG Version: 6.00 Build 0)  -->
<svg version="1.1" id="Слой_1" xmlns="http://www.w3.org/2000/svg" xmlns:xlink="http://www.w3.org/1999/xlink" x="0px" y="0px"
	 viewBox="0 0 400 400" style="enable-background:new 0 0 400 400;" xml:space="preserve">
<style type="text/css">
	.st0{fill:#FDE74C;}
	.st1{fill:#5BC0EB;}
	.st2{fill:#9BC53D;}
	.st3{fill:#FA7921;}
	.st4{fill:#E55934;}
</style>
<g>
	<path class="st1" d="M68.8,209.6l94.4,18.7V40.5l-94.4,22V209.6z M87.2,99.4L87.2,99.4c0.3-1,0.7-2,1-3c0.4-1.1,0.7-2.2,1.1-3.4
		c1.2-3.7,2.3-6.9,3.4-10.1l0.9-2.4h42.3l0.9,2.4c1.1,3.1,2.2,6.4,3.4,10.1c0.4,1.1,0.7,2.2,1.1,3.4c0.3,1,0.6,1.9,0.9,2.9l0,0
		c3.3,9.9,5.6,20.2,0.6,29.5c-1.8,3.3-4.4,6.5-7.8,9.3c-3.2,2.7-6.8,4.9-10.7,6.5c-1.2,0.5-2.5,0.9-3.7,1.3
		c-0.6,0.2-1.1,0.3-1.6,0.4l-0.7,0.2H118c-0.1,0-0.2,0-0.3,0.1c-0.5,0.1-1.2,0.2-1.5,0.6c-0.3,0.3-0.4,0.6-0.5,0.9v0.5v10.6v1.5
		v27.8c0,0,0.1,1.1,0.1,1.7c0.2,2.1,0.8,4.2,2.1,5.9c2,2.7,5.2,3.9,8.3,4.8c2.1,0.6,4.2,1.2,6.3,1.4c0.2,0,1.1,0.1,1.1,0.5
		c0,0.3-0.7,0.3-0.9,0.4c-4.8,0.8-9.7,0.9-14.5,1c-1.2,0-2.4,0-3.6,0c-1.2,0-2.4,0-3.6,0c-4.9,0-9.7-0.2-14.5-1
		c-0.2,0-0.8-0.1-0.9-0.4c-0.1-0.4,0.9-0.4,1.1-0.5c2.1-0.2,4.3-0.9,6.3-1.4c3.1-0.8,6.4-2.1,8.3-4.8c1.3-1.7,1.9-3.8,2.1-5.9
		c0.1-0.6,0.1-1.7,0.1-1.7v-27.7v-1.6v-10.4V148c-0.1-0.3-0.2-0.5-0.4-0.8c-0.4-0.4-1-0.5-1.5-0.6c-0.1,0-0.2,0-0.3-0.1h-0.4
		l-0.7-0.2c-0.5-0.1-1-0.2-1.6-0.4c-1.2-0.3-2.5-0.8-3.7-1.3c-3.9-1.6-7.4-3.8-10.7-6.5c-3.4-2.8-6-6-7.8-9.3
		C81.6,119.6,83.9,109.3,87.2,99.4z"/>
	<path class="st4" d="M171.8,11.6v236.8l94.4-27.8L246.9,25.7L171.8,11.6z M221.3,100.7c-0.8,5.7-4.2,7.5-5.4,10.2
		c-1.2,2.7-1.9,2.1-2.1,7.6c-0.2,5.5-0.3,29.9,0.5,38.8c0.8,8.9,2.6,22,3.7,27.7c1.1,5.6,3,13.9,0.3,17.3c-2.5,3.1-6.4,4.1-7.1,4.1
		H211c-0.7,0-4.6-1-7.1-4.1c-2.8-3.4-0.8-11.7,0.3-17.3c1.1-5.6,2.9-18.7,3.7-27.7c0.8-8.9,0.7-33.3,0.5-38.8
		c-0.2-5.5-0.8-4.9-2-7.6c-1.2-2.7-4.6-4.5-5.4-10.2c-0.8-5.7,0.8-18.9,2-31.8c1.2-12.8,1.2-10.4,1.2-8.7c0,1.8-0.2,33.4,0.1,35.1
		c0.3,1.7,2.7,1.3,2.9,0c0.2-1.3,0.3-2.4,0.7-9.3c0.4-6.9,0.8-27.3,1.2-27.2c0.4,0.1,0.8,35,0.9,36.7c0,1.5,1,1.3,1.3,1.3h0
		c0.3,0,1.2,0.2,1.2-1.3c0-1.7,0.6-36.6,1-36.7c0.4-0.1,0.7,20.3,1.1,27.2c0.4,6.9,0.5,7.9,0.7,9.3c0.2,1.3,2.6,1.7,2.9,0
		c0.3-1.7,0.1-33.3,0.1-35.1c0-1.8,0.1-4.2,1.2,8.7C220.5,81.8,222.1,95,221.3,100.7z"/>
	<path class="st2" d="M256.9,41.6l17.8,183.6l56.5-1.7V26.5C331.2,26.5,259,41.6,256.9,41.6z M313,180.8c-2,13.4-8.4,19.3-10.7,21.4
		c-1.9,1.8-3.9,1.8-4.5,1.8c-0.6,0-2.6,0-4.5-1.8c-2.3-2.1-8.8-8-10.7-21.4c-2-13.4,4.6-20,9.6-23c5-3,3.2-11.4,3-18
		c-0.2-6.6-0.9-30-1.8-38c-0.9-8-4.6-23.5-5-27.8c-0.4-4.3-0.4-12.7,8.2-12.7h1h0.4h1c8.6,0,8.6,8.4,8.2,12.7
		c-0.4,4.3-4.1,19.8-5,27.8c-0.9,8-1.6,31.4-1.8,38c-0.2,6.6-2,15,3,18C308.4,160.8,315,167.4,313,180.8z"/>
</g>
<g>
	<path class="st3" d="M48.6,342h10.1v2.5h-7.4v4.5h6.6v2.4h-6.6v6.1h-2.7V342z"/>
	<path class="st3" d="M81.1,341.7c4.8,0,8.3,3.4,8.3,8c0,4.6-3.6,8-8.3,8c-4.8,0-8.3-3.4-8.3-8C72.8,345.3,76.5,341.7,81.1,341.7z
		 M81.2,355.4c3,0,5.4-2.4,5.4-5.6c0-3.2-2.2-5.6-5.4-5.6c-3.1,0-5.4,2.4-5.4,5.6C75.8,352.9,78.2,355.4,81.2,355.4z"/>
	<path class="st3" d="M112.1,341.7c4.8,0,8.3,3.4,8.3,8c0,4.6-3.6,8-8.3,8c-4.8,0-8.3-3.4-8.3-8
		C103.8,345.3,107.5,341.7,112.1,341.7z M112.2,355.4c3,0,5.4-2.4,5.4-5.6c0-3.2-2.2-5.6-5.4-5.6c-3.1,0-5.4,2.4-5.4,5.6
		C106.8,352.9,109.2,355.4,112.2,355.4z"/>
	<path class="st3" d="M135.9,342h5.9c4.8,0,8.3,3.3,8.3,7.8c0,4.5-3.6,7.8-8.3,7.8h-5.9V342z M138.6,344.5V355h3.1
		c3,0,5.4-2.2,5.4-5.2c0-3.1-2.2-5.3-5.4-5.3H138.6z"/>
	<path class="st3" d="M186.9,349.2c-1.2-1.2-1.7-2.3-1.7-3.4c0-2.6,1.9-4.2,4.6-4.2c2.7,0,4.4,1.5,4.4,3.8c0,2.5-1.5,3.6-3.1,4.3
		l3.3,3.1c1.5-1.5,2.4-3.2,2.4-3.2l1.9,1.4c0,0-1,1.7-2.7,3.5l2,2c0,0.1-1.8,1.9-1.8,1.9l-2.1-2.2c-1.4,1-3,1.7-4.8,1.7
		c-3.5,0-5.5-2-5.5-4.4C183.7,351.1,185.2,350,186.9,349.2z M192.4,354.5l-3.9-3.7c-1.1,0.5-1.9,1.2-1.9,2.4c0,1.4,1.1,2.2,2.8,2.2
		C190.5,355.5,191.5,355.1,192.4,354.5z M189.5,348.1c1.2-0.5,2.1-1.2,2.1-2.3c0-1-0.7-1.9-1.8-1.9c-1.2,0-1.9,0.9-1.9,1.9
		C187.9,346.7,188.6,347.3,189.5,348.1z"/>
	<path class="st3" d="M232.7,342h5.9c4.8,0,8.3,3.3,8.3,7.8c0,4.5-3.6,7.8-8.3,7.8h-5.9V342z M235.5,344.5V355h3.1
		c3,0,5.4-2.2,5.4-5.2c0-3.1-2.2-5.3-5.4-5.3H235.5z"/>
	<path class="st3" d="M262.3,342h5c4.1,0,6.2,2.3,6.2,5.5c0,2.1-0.9,3.9-2.8,4.8l4,5.3h-3.2l-3.3-4.6c-0.4,0-0.9,0.1-1.4,0.1h-1.7
		v4.5h-2.7V342z M265.1,344.5v6.1h2c2.6,0,3.5-1.4,3.5-3.1c0-1.7-0.9-3-3.5-3H265.1z"/>
	<path class="st3" d="M289.5,342h2.7v15.6h-2.7V342z"/>
	<path class="st3" d="M308.7,341.9h0.9l9.6,10V342h2.7v15.7h-0.7l-9.8-9.8v9.7h-2.7V341.9z"/>
	<path class="st3" d="M338.3,342h2.7v7.6l6.6-7.6h3.3l-7.2,8.2l7.5,7.4H348l-6.9-6.7v6.7h-2.7V342z"/>
</g>
<g>
	<path d="M57.9,271.4h17.8v4.6H64.4v15.4h8.8v4.6h-8.8v21.6h-6.4V271.4z"/>
	<path d="M82.3,314.3c-2-2.6-2.9-6.3-2.9-11.1v-17.5c0-4.8,1-8.4,3-10.9c2-2.5,5.2-3.7,9.7-3.7c4.5,0,7.7,1.2,9.7,3.7
		c2,2.5,2.9,6.1,2.9,10.9v17.6c0,4.8-1,8.5-3,11.1c-2,2.6-5.2,3.9-9.6,3.9C87.5,318.1,84.3,316.8,82.3,314.3z M96.9,310.9
		c0.8-1.4,1.3-3.5,1.3-6.4v-20.2c0-2.8-0.4-4.9-1.3-6.2c-0.8-1.3-2.5-2-4.8-2c-2.4,0-4.1,0.7-4.9,2c-0.8,1.3-1.3,3.4-1.3,6.2v20.2
		c0,2.9,0.4,5,1.3,6.4c0.8,1.4,2.5,2.1,4.9,2.1C94.4,313.1,96,312.4,96.9,310.9z"/>
	<path d="M113,314.3c-2-2.6-2.9-6.3-2.9-11.1v-17.5c0-4.8,1-8.4,3-10.9c2-2.5,5.2-3.7,9.7-3.7c4.5,0,7.7,1.2,9.7,3.7
		c2,2.5,2.9,6.1,2.9,10.9v17.6c0,4.8-1,8.5-3,11.1c-2,2.6-5.2,3.9-9.6,3.9C118.2,318.1,115,316.8,113,314.3z M127.6,310.9
		c0.8-1.4,1.3-3.5,1.3-6.4v-20.2c0-2.8-0.4-4.9-1.3-6.2c-0.8-1.3-2.5-2-4.8-2c-2.4,0-4.1,0.7-4.9,2c-0.8,1.3-1.3,3.4-1.3,6.2v20.2
		c0,2.9,0.4,5,1.3,6.4c0.8,1.4,2.5,2.1,4.9,2.1C125.1,313.1,126.7,312.4,127.6,310.9z"/>
	<path d="M141.7,271.4h10c5,0,8.5,1.1,10.6,3.4c2.1,2.3,3.1,5.8,3.1,10.7v17c0,5.1-1,8.9-3,11.4c-2,2.5-5.4,3.7-10.1,3.7h-10.5
		V271.4z M151.7,313c2.2,0,3.9-0.4,4.9-1.3c1-0.9,1.6-2.1,1.9-3.6c0.2-1.5,0.4-3.8,0.4-6.8v-15c0-2.6-0.2-4.6-0.5-6
		c-0.3-1.4-1-2.4-2-3.1c-1-0.7-2.6-1-4.8-1h-3.5V313H151.7z"/>
	<path d="M184.8,271.4h10.6c4.2,0,7.3,0.9,9.3,2.8c2,1.9,3,4.8,3,8.7c0,5.9-2.2,9.1-6.6,9.7c2.7,0.6,4.7,1.9,6,3.8
		c1.3,1.9,1.9,4.5,1.9,7.8c0,4.1-1,7.4-2.9,9.7c-2,2.3-4.9,3.5-8.9,3.5h-12.3V271.4z M195,290.7c2.7,0,4.5-0.6,5.5-1.7
		s1.5-3.1,1.5-6c0-2.1-0.3-3.6-0.9-4.5s-1.6-1.6-2.8-1.9c-1.3-0.3-3.1-0.4-5.6-0.4h-1.5v14.5H195z M195.5,313c1.9,0,3.4-0.3,4.4-0.9
		c1-0.6,1.8-1.5,2.2-2.7c0.4-1.2,0.6-2.9,0.6-5c0-3-0.6-5.2-1.8-6.6c-1.2-1.5-3.2-2.2-5.9-2.2h-3.8V313H195.5z"/>
	<path d="M219,316.2c-1.8-1.3-3-3.1-3.7-5.4c-0.7-2.3-1-5.2-1-8.7v-30.6h6.2v30.9c0,3.5,0.4,6.2,1.2,8c0.8,1.8,2.5,2.7,4.9,2.7
		c2.5,0,4.1-0.9,4.9-2.7c0.8-1.8,1.2-4.5,1.2-8v-30.9h6.1v30.6c0,3.5-0.3,6.4-1,8.7c-0.7,2.3-1.9,4.1-3.7,5.4
		c-1.8,1.3-4.3,1.9-7.5,1.9C223.3,318.1,220.8,317.5,219,316.2z"/>
	<path d="M247.5,314.1c-1.9-2.7-2.8-6.5-2.8-11.3v-16.3c0-5.1,0.9-8.9,2.7-11.5c1.8-2.6,5.1-3.9,9.7-3.9c4.1,0,7.1,1.1,8.9,3.4
		c1.8,2.2,2.7,5.5,2.7,9.9v3.6h-6.1v-3.2c0-2.1-0.1-3.8-0.3-4.9c-0.2-1.1-0.7-2.1-1.5-2.7c-0.8-0.7-2-1-3.7-1c-1.7,0-3,0.4-3.9,1.1
		c-0.9,0.7-1.4,1.8-1.7,3.1c-0.3,1.3-0.4,3.1-0.4,5.3v18.3c0,2.4,0.2,4.2,0.6,5.5c0.4,1.3,1,2.3,1.9,2.9c0.9,0.6,2,0.9,3.6,0.9
		c1.6,0,2.8-0.4,3.6-1.1c0.8-0.7,1.3-1.7,1.5-3c0.2-1.3,0.3-3,0.3-5.1v-3.4h6.1v3.4c0,4.6-0.9,8.1-2.6,10.6c-1.7,2.5-4.7,3.7-9,3.7
		C252.6,318.1,249.4,316.8,247.5,314.1z"/>
	<path d="M274.9,271.4h6.4v21.8l10.6-21.8h6l-9.1,20.3l10.6,25.8h-6.3l-8.8-21.7l-3,5.4v16.3h-6.4V271.4z"/>
	<path d="M303.1,271.4H321v4.8h-11.5v15.3h9.3v4.6h-9.3V313h11.6v4.6h-18V271.4z"/>
	<path d="M331.1,276.2h-8.4v-4.8h23v4.8h-8.2v41.4h-6.4V276.2z"/>
</g>
</svg>
