<?xml version="1.0" encoding="UTF-8" standalone="no"?>
<svg
   xmlns:dc="http://purl.org/dc/elements/1.1/"
   xmlns:cc="http://creativecommons.org/ns#"
   xmlns:rdf="http://www.w3.org/1999/02/22-rdf-syntax-ns#"
   xmlns:svg="http://www.w3.org/2000/svg"
   xmlns="http://www.w3.org/2000/svg"
   xmlns:sodipodi="http://sodipodi.sourceforge.net/DTD/sodipodi-0.dtd"
   xmlns:inkscape="http://www.inkscape.org/namespaces/inkscape"
   viewBox="0 0 400 400"
   version="1.1"
   id="svg49"
   sodipodi:docname="logo.svg"
   inkscape:version="0.92.1 r15371">
  <metadata
     id="metadata53">
    <rdf:RDF>
      <cc:Work
         rdf:about="">
        <dc:format>image/svg+xml</dc:format>
        <dc:type
           rdf:resource="http://purl.org/dc/dcmitype/StillImage" />
        <dc:title>Монтажная область 3</dc:title>
      </cc:Work>
    </rdf:RDF>
  </metadata>
  <sodipodi:namedview
     pagecolor="#ffffff"
     bordercolor="#666666"
     borderopacity="1"
     objecttolerance="10"
     gridtolerance="10"
     guidetolerance="10"
     inkscape:pageopacity="0"
     inkscape:pageshadow="2"
     inkscape:window-width="1366"
     inkscape:window-height="705"
     id="namedview51"
     showgrid="false"
     inkscape:zoom="0.94752309"
     inkscape:cx="243.88986"
     inkscape:cy="238.74669"
     inkscape:window-x="-8"
     inkscape:window-y="-8"
     inkscape:window-maximized="1"
     inkscape:current-layer="Слой_1" />
  <defs
     id="defs12">
    <style
       id="style10">.cls-1{isolation:isolate;}.cls-2{fill:#5bc0eb;}.cls-2,.cls-3,.cls-4,.cls-5{mix-blend-mode:multiply;}.cls-3{fill:#e55934;}.cls-4{fill:#9bc53d;}.cls-6{fill:#fa7921;}.cls-7{font-size:57px;font-family:Oswald-Regular, Oswald;}</style>
  </defs>
  <title
     id="title14">Монтажная область 3</title>
  <g
     class="cls-1"
     id="g47">
    <g
       id="Слой_1"
       data-name="Слой 1">
      <path
         class="cls-2"
         d="M68.81,211.2l94.37,18.72V42.14l-94.37,22ZM87.15,101v0c.33-1,.64-2,1-2.94s.72-2.24,1.09-3.36c1.21-3.66,2.33-6.95,3.44-10.05l.87-2.44h42.31l.87,2.44c1.1,3.09,2.23,6.38,3.44,10.05.37,1.12.73,2.25,1.1,3.37l.94,2.89v0c3.26,9.86,5.59,20.24.64,29.5a32.09,32.09,0,0,1-7.77,9.31,40.15,40.15,0,0,1-10.67,6.47,35.49,35.49,0,0,1-3.67,1.28c-.56.16-1.1.28-1.57.38l-.73.16H118l-.31.07a2.65,2.65,0,0,0-1.52.61,2,2,0,0,0-.48.93V190.1s.07,1.13.13,1.7a12,12,0,0,0,2.07,5.91c2,2.68,5.23,3.92,8.31,4.77a43.3,43.3,0,0,0,6.33,1.44c.2,0,1.15.11,1.09.47s-.69.33-.89.36a94.53,94.53,0,0,1-14.51,1l-3.59,0-3.59,0a94.53,94.53,0,0,1-14.51-1c-.2,0-.84-.09-.89-.36s.88-.44,1.09-.47a43.33,43.33,0,0,0,6.33-1.44c3.08-.85,6.35-2.09,8.31-4.77a12.05,12.05,0,0,0,2.07-5.91c.06-.56.13-1.7.13-1.7V149.58a2.2,2.2,0,0,0-.45-.8,2.65,2.65,0,0,0-1.52-.61l-.31-.07h-.42l-.73-.16c-.47-.1-1-.22-1.57-.38a35.87,35.87,0,0,1-3.67-1.28,40.15,40.15,0,0,1-10.67-6.47,32.11,32.11,0,0,1-7.77-9.31C81.57,121.25,83.9,110.87,87.15,101Z"
         id="path16" />
      <path
         class="cls-3"
         d="M171.84,13.21V250l94.37-27.78L246.86,27.35Zm49.46,89.14c-.8,5.71-4.19,7.49-5.44,10.17s-1.87,2.05-2.05,7.58-.27,29.88.54,38.8,2.58,22,3.66,27.65,3,13.91.27,17.3a12,12,0,0,1-7.1,4.08H211a12,12,0,0,1-7.1-4.08c-2.77-3.39-.81-11.69.26-17.3s2.85-18.73,3.66-27.65.71-33.27.53-38.8-.8-4.91-2-7.58-4.64-4.46-5.44-10.17.8-18.91,2-31.75,1.25-10.44,1.25-8.65-.17,33.36.09,35.05,2.68,1.34,2.85,0,.27-2.41.72-9.28.8-27.3,1.16-27.21.85,35,.89,36.66c0,1.48,1,1.28,1.27,1.28h0c.25,0,1.21.21,1.24-1.28,0-1.65.6-36.58,1-36.67s.65,20.34,1.1,27.21.54,7.94.71,9.28,2.59,1.69,2.85,0,.09-33.27.09-35.05.09-4.19,1.25,8.65S222.1,96.64,221.29,102.34Z"
         id="path18" />
      <path
         class="cls-4"
         d="M256.91,43.22l17.77,183.65,56.51-1.65V28.07S259,43.22,256.91,43.22ZM313,182.39c-2,13.38-8.44,19.26-10.73,21.38a6.61,6.61,0,0,1-9.06,0c-2.29-2.11-8.77-8-10.73-21.38s4.64-20,9.63-23,3.21-11.41,3-18-.89-30-1.78-38-4.64-23.54-5-27.83-.36-12.67,8.21-12.67h2.35c8.56,0,8.56,8.38,8.21,12.67s-4.1,19.8-5,27.83-1.61,31.39-1.78,38-2,15,3,18S315,169,313,182.39Z"
         id="path20" />
      <g
         class="cls-5"
         id="g42">
        <path
           class="cls-6"
           d="M48.61,340.35H58.73v2.52H51.33v4.54h6.55v2.43H51.33v6.07H48.61Z"
           id="path22" />
        <path
           class="cls-6"
           d="M81.14,340.09c4.83,0,8.32,3.39,8.32,8a8.32,8.32,0,0,1-16.63,0A8.08,8.08,0,0,1,81.14,340.09Zm0,13.66a5.39,5.39,0,0,0,5.36-5.58,5.36,5.36,0,1,0-10.72,0A5.41,5.41,0,0,0,81.17,353.75Z"
           id="path24" />
        <path
           class="cls-6"
           d="M112.15,340.09c4.83,0,8.32,3.39,8.32,8a8.32,8.32,0,0,1-16.63,0A8.08,8.08,0,0,1,112.15,340.09Zm0,13.66a5.39,5.39,0,0,0,5.36-5.58,5.36,5.36,0,1,0-10.71,0A5.41,5.41,0,0,0,112.17,353.75Z"
           id="path26" />
        <path
           class="cls-6"
           d="M135.87,340.35h5.87c4.83,0,8.32,3.25,8.32,7.77s-3.56,7.79-8.32,7.79h-5.87Zm2.77,2.52v10.51h3.12a5.26,5.26,0,1,0,0-10.51Z"
           id="path28" />
        <path
           class="cls-6"
           d="M186.85,347.57a4.83,4.83,0,0,1-1.7-3.41c0-2.64,1.95-4.16,4.6-4.16s4.41,1.55,4.41,3.83c0,2.52-1.48,3.59-3.12,4.29l3.32,3.08a17.57,17.57,0,0,0,2.37-3.21l1.93,1.37a19.9,19.9,0,0,1-2.72,3.45l2,2c0,.07-1.77,1.86-1.77,1.86L194,354.5a8.29,8.29,0,0,1-4.78,1.73c-3.52,0-5.51-2-5.51-4.41S185.17,348.35,186.85,347.57Zm5.51,5.31-3.92-3.67a2.64,2.64,0,0,0-1.86,2.41c0,1.42,1.06,2.24,2.83,2.24A5.44,5.44,0,0,0,192.37,352.88Zm-2.9-6.4c1.2-.53,2.13-1.15,2.13-2.32a1.85,1.85,0,1,0-3.7,0C187.89,345,188.56,345.65,189.47,346.49Z"
           id="path30" />
        <path
           class="cls-6"
           d="M232.7,340.35h5.87c4.83,0,8.33,3.25,8.33,7.77s-3.57,7.79-8.33,7.79H232.7Zm2.77,2.52v10.51h3.12a5.26,5.26,0,1,0,0-10.51Z"
           id="path32" />
        <path
           class="cls-6"
           d="M262.31,340.35h5c4.14,0,6.22,2.28,6.22,5.53a4.86,4.86,0,0,1-2.83,4.76l4,5.27h-3.21l-3.3-4.58q-.67.07-1.39.07h-1.7v4.52h-2.75Zm2.75,2.52V349h2c2.57,0,3.45-1.37,3.45-3.08s-.86-3-3.45-3Z"
           id="path34" />
        <path
           class="cls-6"
           d="M289.51,340.35h2.74v15.56h-2.74Z"
           id="path36" />
        <path
           class="cls-6"
           d="M308.68,340.27h.86l9.63,10v-9.94h2.75V356h-.73l-9.76-9.76v9.65h-2.74Z"
           id="path38" />
        <path
           class="cls-6"
           d="M338.33,340.35h2.74V348l6.62-7.62H351l-7.17,8.19,7.53,7.37H348l-6.89-6.66v6.66h-2.74Z"
           id="path40" />
      </g>
      <text
         class="cls-7"
         id="text44"
         x="-4.1376119"
         y="312.62479"
         style="font-size:57px;font-family:Oswald-Regular, Oswald">FOOD BUCKET</text>
    </g>
  </g>
</svg>
